<?xml version="1.0" encoding="utf-8"?><svg viewBox="0 0 242 128" xmlns="http://www.w3.org/2000/svg" xmlns:xlink="http://www.w3.org/1999/xlink"><style>:root>svg{display:none}:root>svg:target{display:block}</style><svg viewBox="0 0 64 64" id="download" xmlns="http://www.w3.org/2000/svg"><path fill="#fff" d="M32 .64C14.682.64.64 14.682.64 32S14.682 63.36 32 63.36c17.318 0 31.36-14.042 31.36-31.36S49.318.64 32 .64zm0 57.818C17.389 58.458 5.542 46.612 5.542 32S17.388 5.542 32 5.542 58.458 17.388 58.458 32 46.612 58.458 32 58.458z"/><path fill="#fff" d="M43.763 39.84v3.923h-23.52V39.84H16.32v7.84h31.36v-7.84h-3.917z"/><path fill="#fff" d="M33.958 32V16.32h-3.923V32h-5.882l7.846 9.798L39.839 32h-5.882z"/></svg><svg viewBox="0 0 156 128" id="logo" xmlns="http://www.w3.org/2000/svg"><path fill="#fff" d="M92.646 6.877c-3.744.95-6.681 2.671-10.34 6.059-2.645 2.448-2.653 2.406.739 3.894 4.968 2.179 8.692 4.748 11.733 8.093 1.932 2.125 1.324 1.938-2.427-.746-2.997-2.145-8.011-4.915-11.309-6.247-1.894-.765-6.566-1.086-7.951-.545l-1.062.414L74.416 19c4.568 2.298 6.734 4.648 7.693 8.345.789 3.042-.343 5.265-7.38 14.495-9.608 12.6-13.126 17.693-17.188 24.88-6.34 11.216-10.826 24.487-10.755 31.815l.01 1.001.534-.907c6.771-11.481 7.115-11.995 12.664-18.954 4.588-5.754 15.668-16.462 16.339-15.791.075.075-.771 1.268-1.881 2.652-4.824 6.015-9.319 13.804-11.132 19.286-1.147 3.468-2.063 7.757-1.764 8.263.121.206 2.633 4.005 5.582 8.442l5.361 8.068h-40.59v4.351h92.395l2.12 1.217c12.837 7.37 13.912 7.923 15.533 7.976 2.644.087 2.002-.466-5.418-4.66-3.881-2.194-7.063-4.111-7.072-4.261s5.205-.272 11.587-.272h11.604v-4.351H110.92l-2.61-1.915c-3.038-2.23-12.781-9.115-14.662-10.362-1.196-.793-1.435-.826-3.291-.453-1.1.221-2.83.404-3.844.407-1.659.005-1.762.05-1.034.453.827.458 2.275 1.37 11.157 7.033 2.792 1.78 5.647 3.594 6.346 4.031l1.269.794-27.335.012-2.469-3.838a1733.958 1733.958 0 00-4.873-7.524c-2.872-4.402-3.07-4.033 1.873-3.487 36.976 4.083 63.422-25.133 53.517-59.122-5.775-19.816-19.968-32.88-32.318-29.746zm11.15 9.149c.853.987.799 2.063-.154 3.078-1.967 2.094-5.259-.295-3.901-2.831.803-1.501 2.863-1.626 4.055-.247zM50.381 74.847c-.287.273-4.275 2.906-8.862 5.851s-11.114 7.173-14.505 9.395c-3.39 2.222-6.934 4.52-7.875 5.109-5.601 3.502-16.621 10.781-16.828 11.117-.177.285 2.349.342 8.995.202l9.241-.194 2.871-1.787c19.54-12.163 21.734-13.629 21.805-14.567.103-1.363 2.696-8.502 4.342-11.956 1.614-3.387 1.799-4.102.816-3.169z"/></svg><svg viewBox="0 0 45 50" id="logo1" xmlns="http://www.w3.org/2000/svg"><path fill="#fff" d="M17.646 7.007c-3.016 1.068-4.939 3.346-6.195 7.338-1.961 6.233-1.246 10.619 2.344 14.377 1.664 1.742 4.19 3.326 5.848 3.668.885.183.889.193.371 1.005-.828 1.3-1.44 1.511-4.419 1.527-2.109.011-2.6-.098-4.767-1.063-1.953-.869-2.465-1.023-3.685-1.105-1.053-.071-1.111-.087-.834-.244.856-.485 3.095-.141 5.278.811.524.228 1.151.334 1.151.195 0-.343-.777-1.565-1.367-2.149-1.617-1.602-3.975-1.678-7.052-.226-1.575.743-1.969.881-3.01 1.056l-.893.15.714.703c1.715 1.687 3.89 2.185 6.964 1.592 1.559-.3 1.82-.261 3.69.562.818.36 1.783.714 2.143.786.791.158.784.153.603.372-.281.339-1.245.549-2.695.587-2.471.065-3.657.973-4.046 3.096l-.084.459.403-.102c.656-.166 1.515-.112 2.843.181 3.043.671 4.866-.057 5.428-2.164a7.58 7.58 0 00.166-.708c.003-.206-.586-.06-1.308.324-2 1.064-2.273 1.171-3.142 1.224-1.385.085-1.895-.227-.549-.336 1.192-.096 1.769-.328 2.917-1.171 1.895-1.393 3.155-1.567 6.429-.888 2.693.559 4.277.771 6.274.84l2.107.073.569.964c2.311 3.916 6.408 7.634 8.996 8.162 1.131.231 1.111.097-.197-1.305-1.425-1.529-.508-.849 1.729 1.28 1.915 1.823 2.27 2.02 3.446 1.907.942-.091.932-.185-.142-1.291-2.706-2.787-4.554-5.014-6.12-7.378l-.99-1.494-1.288-.274c-2.408-.513-2.258-.637.374-.309 3.101.387 3.688-.138 2.686-2.403l-.244-.55-1.576.101c-2.528.162-11.096.098-11.863-.088l-.644-.156.681-.803c.829-.978.748-.977 1.736-.023l.808.78 3.731-.009c2.052-.005 3.773-.052 3.824-.103.094-.094-1.264-2.868-1.711-3.495-.189-.266-.331-.334-.69-.334-4.017 0-8.945-2.953-10.794-6.467-.327-.621-.499-1.243-.25-.904 3.239 4.416 9.485 7.171 15.587 6.874l.802-.039-1.225-2.024c-5.847-9.658-7.644-11.926-10.63-13.409-2.06-1.023-2.607-1.696-2.082-2.557.266-.436.539-.507 1.676-.437.459.029.835.027.835-.003 0-.081-1.565-.991-1.864-1.084-.683-.211-.614-.351.958-1.952.826-.841 1.501-1.559 1.501-1.596 0-.178-.945.182-1.899.724-1.544.878-1.516.878-2.316.039-1.355-1.42-3.091-1.803-5.045-1.111zm5.663 26.025c.063.063-.472.964-.802 1.35-.199.233-.329.269-.855.238l-.62-.036.759-.873c.742-.853 1.157-1.039 1.517-.679z"/></svg><svg viewBox="0 0 64 64" id="pause" xmlns="http://www.w3.org/2000/svg"><path fill="#bdae82" d="M32 0C14.327 0 0 14.327 0 32s14.327 32 32 32 32-14.327 32-32S49.673 0 32 0zm0 58C17.641 58 6 46.359 6 32S17.641 6 32 6s26 11.641 26 26-11.641 26-26 26zM20 20h8v24h-8zm16 0h8v24h-8z"/></svg><svg viewBox="0 0 64 64" id="play" xmlns="http://www.w3.org/2000/svg"><path fill="#bdae82" d="M32 0C14.327 0 0 14.327 0 32s14.327 32 32 32 32-14.327 32-32S49.673 0 32 0zm0 58C17.641 58 6 46.359 6 32S17.641 6 32 6s26 11.641 26 26-11.641 26-26 26zm-8-40l24 14-24 14z"/></svg><svg viewBox="0 0 242 90" id="rss" xmlns="http://www.w3.org/2000/svg"><path fill="#fff" d="M137.197 3.257c-6.927 1.609-10.367 5.259-10.401 11.036-.039 6.727 3.729 9.816 15.812 12.966 5.873 1.53 7.869 4.182 5.091 6.758-3.153 2.922-9.323 1.027-10.1-3.105-.385-2.062-.366-2.056-6.837-1.696l-5.735.318.276 1.806c.425 2.784 2.722 7.082 4.68 8.758 5.802 4.964 21.78 4.455 27.25-.872l1.6-1.558.307 1.811c1.125 6.663 7.892 12.923 15.677 14.504l2.5.509-1.477 1.935c-4.874 6.384-5.012 19.44-.276 26.221 7.248 10.375 27.644 10.074 34.355-.506l1.249-1.969v9.391h31.61V79.467H223.9V50.051h-12.732l-.025 4.5c-.022 3.676-.121 4.343-.548 3.642-2.419-3.968-7.13-7.265-11.748-8.218l-2.489-.515 2.526-1.898c7.858-5.906 12.752-16.681 11.495-25.307-3.305-22.669-35.958-23.02-48.395-.523-.802 1.448-1.485 2.68-1.519 2.737s-1.153-.956-2.489-2.247c-2.77-2.683-4.995-3.665-12.558-5.538-7.037-1.744-8.477-2.967-6.112-5.192 2.25-2.115 7.149-.745 8.252 2.309.647 1.789.529 1.772 8.01 1.277l4.326-.287-.276-1.724C158.341 5.08 148.289.681 137.194 3.26zM2.635 23.268v19.755h12.732V27.217h1.294c2.042 0 3.277 1.502 7.214 8.781l3.682 6.803 7.079.121c3.893.067 7.076.003 7.076-.141 0-2.225-7.934-15.064-10.136-16.402l-1.207-.734 2.436-1.274c9.031-4.728 7.321-18.273-2.576-20.396-1.249-.267-7.574-.467-14.884-.467H2.635v19.755zM195.401 6.952c19.87 5.186 18.051 33.064-2.824 43.242-21.268 10.37-40.222-6.654-30.113-27.045 5.898-11.897 20.984-19.316 32.934-16.194zM24.14 12.417c4.472 2.261 1.505 6.435-4.829 6.795l-3.943.225v-7.585l3.842.006c2.199.003 4.306.242 4.93.557zm164.233 3.493c-3.496.928-7.051 4.461-7.054 7.009-.006 4.163 3.322 5.664 8.558 3.862 3.203-1.102 4.019-1.102 4.612.003 1.004 1.879-2.287 3.794-4.207 2.447-.965-.675-4.523 1.454-4.559 2.728-.056 1.918 4.798 2.644 7.771 1.162 9.442-4.705 6.761-14.805-3.032-11.427-3.915 1.35-4.756 1.409-4.756.323 0-1.704 2.663-2.936 3.825-1.775.475.475 4.075-1.912 4.075-2.703 0-1.181-3.189-2.177-5.237-1.631zm-14.172 9.473c-2.095 1.516-2.194 1.122 1.648 6.576 2.365 3.355 3.274 5.012 3.184 5.797-.157 1.342-1.662 1.699-2.72.644-.672-.672-.847-.619-2.438.745-4.019 3.443 2.09 6.398 6.629 3.209 4.987-3.504 4.995-5.678.037-12.918-3.845-5.617-4.022-5.729-6.342-4.05zM13.044 49.621C5.861 50.754 1.656 54.954 1.6 61.051c-.056 6.221 3.977 9.765 13.967 12.265 6.123 1.533 8.139 2.703 8.139 4.719 0 5.678-10.164 5.11-11.239-.627-.377-2.002-.329-1.991-6.812-1.64l-5.749.312.287 1.8c1.311 8.252 6.109 11.686 16.799 12.021 8.477.264 11.391-.557 15.092-4.258l2.534-2.534.931 1.257c5.386 7.284 23.58 7.774 29.554.793 1.747-2.039 3.707-5.881 3.907-7.65.141-1.246.101-1.268-5.223-2.883l-5.363-1.628-.72 2.166c-2.453 7.383-11.714 7.467-13.748.127-.692-2.495-.608-8.454.157-11.022 1.845-6.207 9.638-7.481 12.8-2.09 1.319 2.25.965 2.208 6.95.855 5.698-1.288 5.453-1.06 4.154-3.859-5.153-11.087-22.475-13.688-31.66-4.759l-2.562 2.492-1.063-1.814c-2.649-4.523-11.005-6.846-19.682-5.473zm121.298.011c-4.863.844-9.667 3.904-12.381 7.883-.726 1.066-.745.979-.768-3.187l-.023-4.281h-12.732v13.61H95.706v-13.61H82.974V89.56h12.732V73.754h12.732V89.56h12.732v-8.933l1.375 2.073c5.721 8.634 23.414 10.15 31.466 2.694 9.318-8.626 7.49-28.249-3.136-33.671-4.101-2.093-11.298-3.004-16.535-2.095zM20.183 57.727c.734.38 1.595 1.409 2.062 2.467l.802 1.817 8.578-.413-.281 2.239c-.371 2.962-.537 3.074-2.998 1.986-1.159-.512-4.402-1.505-7.211-2.211-6.646-1.665-7.473-2.022-7.813-3.375-.63-2.503 3.766-4.112 6.865-2.509zm121.688 1.552c6.502 1.806 7.819 16.729 1.789 20.278-4.503 2.649-10.201.394-11.537-4.57-2.655-9.863 2.264-17.786 9.748-15.708zm53.08-.011c7.554 2.098 7.4 19.074-.191 21.119-6.103 1.642-10.164-2.599-10.133-10.581.034-8.294 3.963-12.305 10.325-10.536z"/></svg></svg>